{"title":"Snitch.2013.SWESUB.DVDRip.XviD-FF","uid":8509346,"size":1467743230,"categoryP":"video","categoryS":"movies","magnet":"?xt=urn:btih:6a7224c33e444ef058fe7fc8cf4c65ea4cd34b26&amp;dn=Snitch.2013.SWESUB.DVDRip.XviD-FF&amp;tr=udp%3A%2F%2Ftracker.openbittorrent.com%3A80&amp;tr=udp%3A%2F%2Fopen.demonii.com%3A1337&amp;tr=udp%3A%2F%2Ftracker.coppersurfer.tk%3A6969&amp;tr=udp%3A%2F%2Fexodus.desync.com%3A6969","seeders":8,"leechers":0,"uploader":null,"files":2,"time":1369523433,"description":"A father goes undercover for the DEA in order to free his son who was imprisoned after being set up in drug deal. \n\nHARDSUBBED SWEDISH\n\nGeneral\n\nFormat                         : AVI\nFormat/Info                    : Audio Video Interleave\nFile size                      : 1.37 GiB\nDuration                       : 1h 47mn\nOverall bit rate               : 1 824 Kbps\n\n\nVideo\nID                             : 0\nFormat                         : MPEG-4 Visual\nFormat profile                 : Advanced Simple@L5\nFormat settings, BVOP          : 1\nFormat settings, QPel          : No\nFormat settings, GMC           : No warppoints\nFormat settings, Matrix        : Default (MPEG)\nMuxing mode                    : Packed bitstream\nCodec ID                       : XVID\nCodec ID/Hint                  : XviD\nDuration                       : 1h 47mn\nBit rate                       : 1 686 Kbps\nWidth                          : 704 pixels\nHeight                         : 288 pixels\nDisplay aspect ratio           : 2.40:1\nFrame rate                     : 25.000 fps\nColor space                    : YUV\nChroma subsampling             : 4:2:0\nBit depth                      : 8 bits\nScan type                      : Progressive\nCompression mode               : Lossy\nBits/(Pixel*Frame)             : 0.333\nStream size                    : 1.26 GiB (92%)\nWriting library                : XviD 1.2.0.dev47 (UTC 2006-11-01)\n\nAudio\nID                             : 1\nFormat                         : MPEG Audio\nFormat version                 : Version 1\nFormat profile                 : Layer 3\nMode                           : Joint stereo\nMode extension                 : MS Stereo\nCodec ID                       : 55\nCodec ID/Hint                  : MP3\nDuration                       : 1h 47mn\nBit rate mode                  : Constant\nBit rate                       : 128 Kbps\nChannel(s)                     : 2 channels\nSampling rate                  : 48.0 KHz\nCompression mode               : Lossy\nStream size                    : 98.2 MiB (7%)\nAlignment                      : Aligned on interleaves\nInterleave, duration           : 40 ms (1.00 video frame)\nInterleave, preload duration   : 504 ms\nWriting library                : LAME3.97 \nEncoding settings              : -m j -V 4 -q 2 -lowpass 17 -b 128\n\n","torrent":{"xt":"urn:btih:6a7224c33e444ef058fe7fc8cf4c65ea4cd34b26","amp;dn":"Snitch.2013.SWESUB.DVDRip.XviD-FF","amp;tr":["udp%3A%2F%2Ftracker.openbittorrent.com%3A80","udp%3A%2F%2Fopen.demonii.com%3A1337","udp%3A%2F%2Ftracker.coppersurfer.tk%3A6969","udp%3A%2F%2Fexodus.desync.com%3A6969"],"infoHash":"6a7224c33e444ef058fe7fc8cf4c65ea4cd34b26","infoHashBuffer":{"type":"Buffer","data":[106,114,36,195,62,68,78,240,88,254,127,200,207,76,101,234,76,211,75,38]},"announce":[],"urlList":[]}}